<svg width="369" height="76" viewBox="0 0 369 76" fill="none" xmlns="http://www.w3.org/2000/svg">
<path d="M90.59 38.06C89.83 38.06 89.22 37.84 88.76 37.4C88.32 36.94 88.1 36.33 88.1 35.57V19.76C88.32 19.72 88.63 19.67 89.03 19.61C89.45 19.55 89.86 19.52 90.26 19.52C91.16 19.52 91.81 19.67 92.21 19.97C92.61 20.27 92.81 20.86 92.81 21.74V34.25H100.01C100.13 34.45 100.24 34.71 100.34 35.03C100.46 35.35 100.52 35.7 100.52 36.08C100.52 36.74 100.37 37.24 100.07 37.58C99.79 37.9 99.4 38.06 98.9 38.06H90.59ZM117.379 30.77C117.379 31.95 117.199 33.02 116.839 33.98C116.479 34.92 115.959 35.72 115.279 36.38C114.619 37.04 113.819 37.55 112.879 37.91C111.939 38.27 110.889 38.45 109.729 38.45C108.569 38.45 107.509 38.28 106.549 37.94C105.609 37.58 104.799 37.07 104.119 36.41C103.459 35.75 102.949 34.95 102.589 34.01C102.229 33.05 102.049 31.97 102.049 30.77C102.049 29.61 102.229 28.56 102.589 27.62C102.969 26.66 103.489 25.85 104.149 25.19C104.829 24.53 105.639 24.02 106.579 23.66C107.539 23.3 108.589 23.12 109.729 23.12C110.869 23.12 111.909 23.3 112.849 23.66C113.789 24.02 114.589 24.54 115.249 25.22C115.929 25.88 116.449 26.68 116.809 27.62C117.189 28.56 117.379 29.61 117.379 30.77ZM109.729 26.72C108.789 26.72 108.059 27.07 107.539 27.77C107.019 28.47 106.759 29.47 106.759 30.77C106.759 32.11 107.009 33.13 107.509 33.83C108.029 34.51 108.769 34.85 109.729 34.85C110.689 34.85 111.419 34.5 111.919 33.8C112.439 33.1 112.699 32.09 112.699 30.77C112.699 29.49 112.439 28.5 111.919 27.8C111.399 27.08 110.669 26.72 109.729 26.72ZM128.002 26.75C126.922 26.75 126.002 27.1 125.242 27.8C124.482 28.48 124.102 29.49 124.102 30.83C124.102 32.17 124.462 33.17 125.182 33.83C125.922 34.49 126.852 34.82 127.972 34.82C128.612 34.82 129.172 34.74 129.652 34.58C130.152 34.4 130.572 34.22 130.912 34.04C131.252 34.3 131.512 34.58 131.692 34.88C131.892 35.16 131.992 35.51 131.992 35.93C131.992 36.69 131.592 37.3 130.792 37.76C129.992 38.22 128.882 38.45 127.462 38.45C126.262 38.45 125.162 38.29 124.162 37.97C123.182 37.65 122.342 37.17 121.642 36.53C120.942 35.89 120.402 35.1 120.022 34.16C119.642 33.2 119.452 32.09 119.452 30.83C119.452 29.53 119.662 28.4 120.082 27.44C120.502 26.48 121.072 25.68 121.792 25.04C122.512 24.4 123.352 23.92 124.312 23.6C125.272 23.28 126.282 23.12 127.342 23.12C128.722 23.12 129.802 23.37 130.582 23.87C131.382 24.37 131.782 25 131.782 25.76C131.782 26.12 131.692 26.45 131.512 26.75C131.352 27.05 131.152 27.31 130.912 27.53C130.552 27.33 130.122 27.15 129.622 26.99C129.142 26.83 128.602 26.75 128.002 26.75ZM140.76 35.09C141.2 35.09 141.63 35.05 142.05 34.97C142.49 34.87 142.82 34.75 143.04 34.61V31.85L140.58 32.06C139.94 32.12 139.42 32.27 139.02 32.51C138.64 32.73 138.45 33.07 138.45 33.53C138.45 34.01 138.63 34.39 138.99 34.67C139.35 34.95 139.94 35.09 140.76 35.09ZM140.58 23.12C141.62 23.12 142.56 23.23 143.4 23.45C144.26 23.65 144.99 23.97 145.59 24.41C146.19 24.85 146.65 25.41 146.97 26.09C147.31 26.77 147.48 27.57 147.48 28.49V35.27C147.48 35.79 147.34 36.21 147.06 36.53C146.8 36.83 146.48 37.09 146.1 37.31C145.48 37.69 144.72 37.98 143.82 38.18C142.92 38.38 141.9 38.48 140.76 38.48C138.7 38.48 137.06 38.09 135.84 37.31C134.62 36.51 134.01 35.3 134.01 33.68C134.01 32.3 134.42 31.25 135.24 30.53C136.06 29.81 137.32 29.36 139.02 29.18L143.01 28.76V28.43C143.01 27.79 142.75 27.32 142.23 27.02C141.71 26.72 140.96 26.57 139.98 26.57C139.22 26.57 138.47 26.66 137.73 26.84C137.01 27.02 136.36 27.23 135.78 27.47C135.54 27.31 135.33 27.07 135.15 26.75C134.99 26.41 134.91 26.05 134.91 25.67C134.91 24.79 135.37 24.16 136.29 23.78C136.87 23.56 137.54 23.4 138.3 23.3C139.08 23.18 139.84 23.12 140.58 23.12ZM155.405 33.23C155.405 33.79 155.585 34.2 155.945 34.46C156.305 34.7 156.805 34.82 157.445 34.82C157.745 34.82 158.065 34.79 158.405 34.73C158.745 34.65 159.035 34.56 159.275 34.46C159.455 34.66 159.605 34.89 159.725 35.15C159.845 35.41 159.905 35.71 159.905 36.05C159.905 36.75 159.625 37.33 159.065 37.79C158.525 38.23 157.575 38.45 156.215 38.45C154.535 38.45 153.225 38.07 152.285 37.31C151.345 36.53 150.875 35.27 150.875 33.53V20.06C151.095 20 151.385 19.94 151.745 19.88C152.105 19.8 152.495 19.76 152.915 19.76C153.795 19.76 154.425 19.92 154.805 20.24C155.205 20.54 155.405 21.1 155.405 21.92V23.87H159.545C159.645 24.07 159.745 24.33 159.845 24.65C159.945 24.95 159.995 25.27 159.995 25.61C159.995 26.25 159.845 26.71 159.545 26.99C159.265 27.27 158.895 27.41 158.435 27.41H155.405V33.23ZM167.273 37.97C167.073 38.03 166.793 38.08 166.433 38.12C166.073 38.18 165.673 38.21 165.233 38.21C164.333 38.21 163.683 38.07 163.283 37.79C162.903 37.49 162.713 36.92 162.713 36.08V23.75C162.913 23.69 163.193 23.63 163.553 23.57C163.913 23.51 164.313 23.48 164.753 23.48C165.653 23.48 166.293 23.63 166.673 23.93C167.073 24.23 167.273 24.8 167.273 25.64V37.97ZM162.443 19.43C162.443 18.75 162.673 18.17 163.133 17.69C163.613 17.21 164.233 16.97 164.993 16.97C165.753 16.97 166.363 17.21 166.823 17.69C167.303 18.17 167.543 18.75 167.543 19.43C167.543 20.13 167.303 20.72 166.823 21.2C166.363 21.68 165.753 21.92 164.993 21.92C164.233 21.92 163.613 21.68 163.133 21.2C162.673 20.72 162.443 20.13 162.443 19.43ZM185.465 30.77C185.465 31.95 185.285 33.02 184.925 33.98C184.565 34.92 184.045 35.72 183.365 36.38C182.705 37.04 181.905 37.55 180.965 37.91C180.025 38.27 178.975 38.45 177.815 38.45C176.655 38.45 175.595 38.28 174.635 37.94C173.695 37.58 172.885 37.07 172.205 36.41C171.545 35.75 171.035 34.95 170.675 34.01C170.315 33.05 170.135 31.97 170.135 30.77C170.135 29.61 170.315 28.56 170.675 27.62C171.055 26.66 171.575 25.85 172.235 25.19C172.915 24.53 173.725 24.02 174.665 23.66C175.625 23.3 176.675 23.12 177.815 23.12C178.955 23.12 179.995 23.3 180.935 23.66C181.875 24.02 182.675 24.54 183.335 25.22C184.015 25.88 184.535 26.68 184.895 27.62C185.275 28.56 185.465 29.61 185.465 30.77ZM177.815 26.72C176.875 26.72 176.145 27.07 175.625 27.77C175.105 28.47 174.845 29.47 174.845 30.77C174.845 32.11 175.095 33.13 175.595 33.83C176.115 34.51 176.855 34.85 177.815 34.85C178.775 34.85 179.505 34.5 180.005 33.8C180.525 33.1 180.785 32.09 180.785 30.77C180.785 29.49 180.525 28.5 180.005 27.8C179.485 27.08 178.755 26.72 177.815 26.72ZM197.528 28.79C197.528 28.09 197.318 27.57 196.898 27.23C196.478 26.89 195.918 26.72 195.218 26.72C194.738 26.72 194.298 26.78 193.898 26.9C193.498 27.02 193.128 27.17 192.788 27.35V37.97C192.588 38.03 192.308 38.08 191.948 38.12C191.588 38.18 191.188 38.21 190.748 38.21C189.848 38.21 189.198 38.07 188.798 37.79C188.398 37.49 188.198 36.92 188.198 36.08V26.81C188.198 26.29 188.308 25.87 188.528 25.55C188.748 25.23 189.058 24.93 189.458 24.65C190.098 24.19 190.918 23.82 191.918 23.54C192.938 23.26 194.058 23.12 195.278 23.12C197.458 23.12 199.138 23.6 200.318 24.56C201.518 25.52 202.118 26.89 202.118 28.67V37.97C201.898 38.03 201.608 38.08 201.248 38.12C200.888 38.18 200.488 38.21 200.048 38.21C199.148 38.21 198.498 38.07 198.098 37.79C197.718 37.49 197.528 36.92 197.528 36.08V28.79ZM217.332 33.77C217.332 35.25 216.782 36.41 215.682 37.25C214.582 38.07 212.962 38.48 210.822 38.48C209.982 38.48 209.212 38.42 208.512 38.3C207.832 38.18 207.242 38 206.742 37.76C206.242 37.52 205.852 37.22 205.572 36.86C205.292 36.5 205.152 36.08 205.152 35.6C205.152 35.16 205.242 34.79 205.422 34.49C205.602 34.17 205.832 33.91 206.112 33.71C206.692 34.05 207.352 34.35 208.092 34.61C208.832 34.87 209.692 35 210.672 35C212.092 35 212.802 34.6 212.802 33.8C212.802 33.46 212.672 33.2 212.412 33.02C212.172 32.84 211.752 32.68 211.152 32.54L209.952 32.27C208.312 31.93 207.092 31.41 206.292 30.71C205.492 29.99 205.092 28.99 205.092 27.71C205.092 26.29 205.662 25.17 206.802 24.35C207.962 23.51 209.512 23.09 211.452 23.09C212.172 23.09 212.852 23.15 213.492 23.27C214.132 23.37 214.682 23.53 215.142 23.75C215.602 23.97 215.962 24.25 216.222 24.59C216.502 24.91 216.642 25.29 216.642 25.73C216.642 26.13 216.562 26.49 216.402 26.81C216.242 27.11 216.032 27.36 215.772 27.56C215.612 27.46 215.372 27.35 215.052 27.23C214.752 27.11 214.422 27 214.062 26.9C213.702 26.8 213.322 26.72 212.922 26.66C212.522 26.6 212.152 26.57 211.812 26.57C211.112 26.57 210.562 26.67 210.162 26.87C209.782 27.05 209.592 27.33 209.592 27.71C209.592 27.99 209.702 28.21 209.922 28.37C210.142 28.53 210.542 28.68 211.122 28.82L212.262 29.09C214.082 29.49 215.382 30.07 216.162 30.83C216.942 31.59 217.332 32.57 217.332 33.77ZM240.69 30.77C240.69 31.95 240.51 33.02 240.15 33.98C239.79 34.92 239.27 35.72 238.59 36.38C237.93 37.04 237.13 37.55 236.19 37.91C235.25 38.27 234.2 38.45 233.04 38.45C231.88 38.45 230.82 38.28 229.86 37.94C228.92 37.58 228.11 37.07 227.43 36.41C226.77 35.75 226.26 34.95 225.9 34.01C225.54 33.05 225.36 31.97 225.36 30.77C225.36 29.61 225.54 28.56 225.9 27.62C226.28 26.66 226.8 25.85 227.46 25.19C228.14 24.53 228.95 24.02 229.89 23.66C230.85 23.3 231.9 23.12 233.04 23.12C234.18 23.12 235.22 23.3 236.16 23.66C237.1 24.02 237.9 24.54 238.56 25.22C239.24 25.88 239.76 26.68 240.12 27.62C240.5 28.56 240.69 29.61 240.69 30.77ZM233.04 26.72C232.1 26.72 231.37 27.07 230.85 27.77C230.33 28.47 230.07 29.47 230.07 30.77C230.07 32.11 230.32 33.13 230.82 33.83C231.34 34.51 232.08 34.85 233.04 34.85C234 34.85 234.73 34.5 235.23 33.8C235.75 33.1 236.01 32.09 236.01 30.77C236.01 29.49 235.75 28.5 235.23 27.8C234.71 27.08 233.98 26.72 233.04 26.72ZM247.862 24.62H252.962C253.062 24.82 253.162 25.07 253.262 25.37C253.382 25.67 253.442 26 253.442 26.36C253.442 27 253.292 27.46 252.992 27.74C252.712 28.02 252.342 28.16 251.882 28.16H248.072V37.97C247.872 38.03 247.592 38.08 247.232 38.12C246.872 38.18 246.472 38.21 246.032 38.21C245.132 38.21 244.482 38.07 244.082 37.79C243.682 37.49 243.482 36.92 243.482 36.08V23.33C243.482 22.35 243.642 21.5 243.962 20.78C244.302 20.06 244.762 19.48 245.342 19.04C245.922 18.58 246.602 18.24 247.382 18.02C248.162 17.8 249.002 17.69 249.902 17.69C251.322 17.69 252.372 17.88 253.052 18.26C253.752 18.62 254.102 19.22 254.102 20.06C254.102 20.44 254.022 20.78 253.862 21.08C253.722 21.36 253.552 21.58 253.352 21.74C252.972 21.62 252.562 21.52 252.122 21.44C251.702 21.36 251.222 21.32 250.682 21.32C249.762 21.32 249.062 21.49 248.582 21.83C248.102 22.15 247.862 22.7 247.862 23.48V24.62ZM265.083 38.21C264.143 38.21 263.483 38.05 263.103 37.73C262.743 37.41 262.563 36.83 262.563 35.99V19.76C262.783 19.72 263.093 19.67 263.493 19.61C263.913 19.55 264.333 19.52 264.753 19.52C265.653 19.52 266.293 19.67 266.673 19.97C267.073 20.27 267.273 20.86 267.273 21.74V37.97C267.053 38.03 266.743 38.08 266.343 38.12C265.943 38.18 265.523 38.21 265.083 38.21ZM280.379 28.79C280.379 28.09 280.169 27.57 279.749 27.23C279.329 26.89 278.769 26.72 278.069 26.72C277.589 26.72 277.149 26.78 276.749 26.9C276.349 27.02 275.979 27.17 275.639 27.35V37.97C275.439 38.03 275.159 38.08 274.799 38.12C274.439 38.18 274.039 38.21 273.599 38.21C272.699 38.21 272.049 38.07 271.649 37.79C271.249 37.49 271.049 36.92 271.049 36.08V26.81C271.049 26.29 271.159 25.87 271.379 25.55C271.599 25.23 271.909 24.93 272.309 24.65C272.949 24.19 273.769 23.82 274.769 23.54C275.789 23.26 276.909 23.12 278.129 23.12C280.309 23.12 281.989 23.6 283.169 24.56C284.369 25.52 284.969 26.89 284.969 28.67V37.97C284.749 38.03 284.459 38.08 284.099 38.12C283.739 38.18 283.339 38.21 282.899 38.21C281.999 38.21 281.349 38.07 280.949 37.79C280.569 37.49 280.379 36.92 280.379 36.08V28.79ZM292.954 33.23C292.954 33.79 293.134 34.2 293.494 34.46C293.854 34.7 294.354 34.82 294.994 34.82C295.294 34.82 295.614 34.79 295.954 34.73C296.294 34.65 296.584 34.56 296.824 34.46C297.004 34.66 297.154 34.89 297.274 35.15C297.394 35.41 297.454 35.71 297.454 36.05C297.454 36.75 297.174 37.33 296.614 37.79C296.074 38.23 295.124 38.45 293.764 38.45C292.084 38.45 290.774 38.07 289.834 37.31C288.894 36.53 288.424 35.27 288.424 33.53V20.06C288.644 20 288.934 19.94 289.294 19.88C289.654 19.8 290.044 19.76 290.464 19.76C291.344 19.76 291.974 19.92 292.354 20.24C292.754 20.54 292.954 21.1 292.954 21.92V23.87H297.094C297.194 24.07 297.294 24.33 297.394 24.65C297.494 24.95 297.544 25.27 297.544 25.61C297.544 26.25 297.394 26.71 297.094 26.99C296.814 27.27 296.444 27.41 295.984 27.41H292.954V33.23ZM303.836 32.69C304.116 33.53 304.606 34.13 305.306 34.49C306.006 34.83 306.816 35 307.736 35C308.576 35 309.366 34.89 310.106 34.67C310.846 34.43 311.446 34.17 311.906 33.89C312.206 34.09 312.456 34.35 312.656 34.67C312.856 34.99 312.956 35.34 312.956 35.72C312.956 36.18 312.816 36.58 312.536 36.92C312.256 37.26 311.866 37.55 311.366 37.79C310.886 38.01 310.306 38.17 309.626 38.27C308.966 38.39 308.236 38.45 307.436 38.45C306.256 38.45 305.166 38.29 304.166 37.97C303.166 37.63 302.306 37.14 301.586 36.5C300.866 35.84 300.296 35.02 299.876 34.04C299.476 33.06 299.276 31.91 299.276 30.59C299.276 29.31 299.476 28.2 299.876 27.26C300.296 26.32 300.846 25.54 301.526 24.92C302.226 24.3 303.016 23.85 303.896 23.57C304.796 23.27 305.716 23.12 306.656 23.12C307.676 23.12 308.606 23.28 309.446 23.6C310.306 23.9 311.036 24.33 311.636 24.89C312.256 25.45 312.736 26.12 313.076 26.9C313.416 27.68 313.586 28.53 313.586 29.45C313.586 30.09 313.416 30.57 313.076 30.89C312.736 31.21 312.256 31.42 311.636 31.52L303.836 32.69ZM306.686 26.51C305.826 26.51 305.106 26.78 304.526 27.32C303.966 27.84 303.636 28.6 303.536 29.6L309.266 28.67C309.226 28.15 308.996 27.66 308.576 27.2C308.156 26.74 307.526 26.51 306.686 26.51ZM320.815 37.97C320.615 38.03 320.335 38.08 319.975 38.12C319.615 38.18 319.215 38.21 318.775 38.21C317.875 38.21 317.225 38.07 316.825 37.79C316.425 37.49 316.225 36.92 316.225 36.08V26.93C316.225 26.37 316.365 25.89 316.645 25.49C316.925 25.09 317.315 24.74 317.815 24.44C318.475 24.04 319.265 23.73 320.185 23.51C321.125 23.27 322.105 23.15 323.125 23.15C325.205 23.15 326.245 23.85 326.245 25.25C326.245 25.59 326.195 25.9 326.095 26.18C325.995 26.46 325.885 26.7 325.765 26.9C325.305 26.8 324.745 26.75 324.085 26.75C323.505 26.75 322.925 26.82 322.345 26.96C321.765 27.1 321.255 27.29 320.815 27.53V37.97ZM331.785 32.69C332.065 33.53 332.555 34.13 333.255 34.49C333.955 34.83 334.765 35 335.685 35C336.525 35 337.315 34.89 338.055 34.67C338.795 34.43 339.395 34.17 339.855 33.89C340.155 34.09 340.405 34.35 340.605 34.67C340.805 34.99 340.905 35.34 340.905 35.72C340.905 36.18 340.765 36.58 340.485 36.92C340.205 37.26 339.815 37.55 339.315 37.79C338.835 38.01 338.255 38.17 337.575 38.27C336.915 38.39 336.185 38.45 335.385 38.45C334.205 38.45 333.115 38.29 332.115 37.97C331.115 37.63 330.255 37.14 329.535 36.5C328.815 35.84 328.245 35.02 327.825 34.04C327.425 33.06 327.225 31.91 327.225 30.59C327.225 29.31 327.425 28.2 327.825 27.26C328.245 26.32 328.795 25.54 329.475 24.92C330.175 24.3 330.965 23.85 331.845 23.57C332.745 23.27 333.665 23.12 334.605 23.12C335.625 23.12 336.555 23.28 337.395 23.6C338.255 23.9 338.985 24.33 339.585 24.89C340.205 25.45 340.685 26.12 341.025 26.9C341.365 27.68 341.535 28.53 341.535 29.45C341.535 30.09 341.365 30.57 341.025 30.89C340.685 31.21 340.205 31.42 339.585 31.52L331.785 32.69ZM334.635 26.51C333.775 26.51 333.055 26.78 332.475 27.32C331.915 27.84 331.585 28.6 331.485 29.6L337.215 28.67C337.175 28.15 336.945 27.66 336.525 27.2C336.105 26.74 335.475 26.51 334.635 26.51ZM356.023 33.77C356.023 35.25 355.473 36.41 354.373 37.25C353.273 38.07 351.653 38.48 349.513 38.48C348.673 38.48 347.903 38.42 347.203 38.3C346.523 38.18 345.933 38 345.433 37.76C344.933 37.52 344.543 37.22 344.263 36.86C343.983 36.5 343.843 36.08 343.843 35.6C343.843 35.16 343.933 34.79 344.113 34.49C344.293 34.17 344.523 33.91 344.803 33.71C345.383 34.05 346.043 34.35 346.783 34.61C347.523 34.87 348.383 35 349.363 35C350.783 35 351.493 34.6 351.493 33.8C351.493 33.46 351.363 33.2 351.103 33.02C350.863 32.84 350.443 32.68 349.843 32.54L348.643 32.27C347.003 31.93 345.783 31.41 344.983 30.71C344.183 29.99 343.783 28.99 343.783 27.71C343.783 26.29 344.353 25.17 345.493 24.35C346.653 23.51 348.203 23.09 350.143 23.09C350.863 23.09 351.543 23.15 352.183 23.27C352.823 23.37 353.373 23.53 353.833 23.75C354.293 23.97 354.653 24.25 354.913 24.59C355.193 24.91 355.333 25.29 355.333 25.73C355.333 26.13 355.253 26.49 355.093 26.81C354.933 27.11 354.723 27.36 354.463 27.56C354.303 27.46 354.063 27.35 353.743 27.23C353.443 27.11 353.113 27 352.753 26.9C352.393 26.8 352.013 26.72 351.613 26.66C351.213 26.6 350.843 26.57 350.503 26.57C349.803 26.57 349.253 26.67 348.853 26.87C348.473 27.05 348.283 27.33 348.283 27.71C348.283 27.99 348.393 28.21 348.613 28.37C348.833 28.53 349.233 28.68 349.813 28.82L350.953 29.09C352.773 29.49 354.073 30.07 354.853 30.83C355.633 31.59 356.023 32.57 356.023 33.77ZM363.295 33.23C363.295 33.79 363.475 34.2 363.835 34.46C364.195 34.7 364.695 34.82 365.335 34.82C365.635 34.82 365.955 34.79 366.295 34.73C366.635 34.65 366.925 34.56 367.165 34.46C367.345 34.66 367.495 34.89 367.615 35.15C367.735 35.41 367.795 35.71 367.795 36.05C367.795 36.75 367.515 37.33 366.955 37.79C366.415 38.23 365.465 38.45 364.105 38.45C362.425 38.45 361.115 38.07 360.175 37.31C359.235 36.53 358.765 35.27 358.765 33.53V20.06C358.985 20 359.275 19.94 359.635 19.88C359.995 19.8 360.385 19.76 360.805 19.76C361.685 19.76 362.315 19.92 362.695 20.24C363.095 20.54 363.295 21.1 363.295 21.92V23.87H367.435C367.535 24.07 367.635 24.33 367.735 24.65C367.835 24.95 367.885 25.27 367.885 25.61C367.885 26.25 367.735 26.71 367.435 26.99C367.155 27.27 366.785 27.41 366.325 27.41H363.295V33.23Z" fill="black"/>
<path d="M88.8728 59.128V63.9832C88.8056 64.0056 88.716 64.028 88.604 64.0504C88.492 64.084 88.3688 64.1008 88.2344 64.1008C87.7416 64.1008 87.4952 63.8936 87.4952 63.4792V53.8192C87.5512 53.7968 87.6352 53.7744 87.7472 53.752C87.8704 53.7184 87.9992 53.7016 88.1336 53.7016C88.6264 53.7016 88.8728 53.9088 88.8728 54.3232V58.5064L93.4928 53.7184C93.784 53.7296 94.0024 53.8024 94.148 53.9368C94.2936 54.0712 94.3664 54.228 94.3664 54.4072C94.3664 54.5528 94.3272 54.6872 94.2488 54.8104C94.1704 54.9336 94.0584 55.068 93.9128 55.2136L90.284 58.7752C91.3032 59.772 92.1824 60.6624 92.9216 61.4464C93.672 62.2192 94.316 62.8464 94.8536 63.328C94.8312 63.5744 94.7528 63.7704 94.6184 63.916C94.4952 64.0504 94.3328 64.1176 94.1312 64.1176C93.9408 64.1176 93.7672 64.0672 93.6104 63.9664C93.4648 63.8544 93.3136 63.72 93.1568 63.5632L88.8728 59.128ZM97.3559 60.9088C97.6583 62.376 98.6215 63.1096 100.245 63.1096C100.716 63.1096 101.141 63.0312 101.522 62.8744C101.903 62.7176 102.205 62.5496 102.429 62.3704C102.698 62.5272 102.833 62.74 102.833 63.0088C102.833 63.1656 102.76 63.3168 102.614 63.4624C102.48 63.608 102.289 63.7368 102.043 63.8488C101.808 63.9608 101.528 64.0504 101.203 64.1176C100.889 64.1848 100.548 64.2184 100.178 64.2184C98.8791 64.2184 97.8487 63.8656 97.0871 63.16C96.3367 62.4544 95.9615 61.424 95.9615 60.0688C95.9615 59.4304 96.0511 58.8648 96.2303 58.372C96.4207 57.868 96.6783 57.4424 97.0031 57.0952C97.3391 56.748 97.7367 56.4848 98.1959 56.3056C98.6551 56.1152 99.1535 56.02 99.6911 56.02C100.195 56.02 100.66 56.104 101.085 56.272C101.511 56.44 101.875 56.6808 102.177 56.9944C102.491 57.2968 102.732 57.6608 102.9 58.0864C103.079 58.5008 103.169 58.96 103.169 59.464C103.169 59.7104 103.113 59.8896 103.001 60.0016C102.889 60.1024 102.732 60.164 102.53 60.1864L97.3559 60.9088ZM99.6743 57.112C98.9911 57.112 98.4255 57.3528 97.9775 57.8344C97.5295 58.3048 97.2943 58.9824 97.2719 59.8672L101.892 59.2288C101.836 58.6128 101.617 58.1088 101.237 57.7168C100.867 57.3136 100.346 57.112 99.6743 57.112ZM106.068 60.9088C106.37 62.376 107.333 63.1096 108.957 63.1096C109.428 63.1096 109.853 63.0312 110.234 62.8744C110.615 62.7176 110.917 62.5496 111.141 62.3704C111.41 62.5272 111.544 62.74 111.544 63.0088C111.544 63.1656 111.472 63.3168 111.326 63.4624C111.192 63.608 111.001 63.7368 110.755 63.8488C110.52 63.9608 110.24 64.0504 109.915 64.1176C109.601 64.1848 109.26 64.2184 108.89 64.2184C107.591 64.2184 106.56 63.8656 105.799 63.16C105.048 62.4544 104.673 61.424 104.673 60.0688C104.673 59.4304 104.763 58.8648 104.942 58.372C105.132 57.868 105.39 57.4424 105.715 57.0952C106.051 56.748 106.448 56.4848 106.908 56.3056C107.367 56.1152 107.865 56.02 108.403 56.02C108.907 56.02 109.372 56.104 109.797 56.272C110.223 56.44 110.587 56.6808 110.889 56.9944C111.203 57.2968 111.444 57.6608 111.612 58.0864C111.791 58.5008 111.88 58.96 111.88 59.464C111.88 59.7104 111.824 59.8896 111.712 60.0016C111.6 60.1024 111.444 60.164 111.242 60.1864L106.068 60.9088ZM108.386 57.112C107.703 57.112 107.137 57.3528 106.689 57.8344C106.241 58.3048 106.006 58.9824 105.984 59.8672L110.604 59.2288C110.548 58.6128 110.329 58.1088 109.948 57.7168C109.579 57.3136 109.058 57.112 108.386 57.112ZM117.131 64.2184C116.739 64.2184 116.37 64.1736 116.023 64.084C115.675 63.9944 115.39 63.888 115.166 63.7648V67.024C115.11 67.0464 115.026 67.0688 114.914 67.0912C114.802 67.1248 114.679 67.1416 114.544 67.1416C114.063 67.1416 113.822 66.9344 113.822 66.52V57.6496C113.822 57.4256 113.861 57.2464 113.939 57.112C114.018 56.9776 114.18 56.8376 114.427 56.692C114.729 56.524 115.087 56.3728 115.502 56.2384C115.927 56.0928 116.409 56.02 116.947 56.02C117.495 56.02 118.011 56.0984 118.492 56.2552C118.985 56.412 119.405 56.6584 119.752 56.9944C120.111 57.3192 120.391 57.7392 120.592 58.2544C120.805 58.7696 120.911 59.3856 120.911 60.1024C120.911 60.7968 120.816 61.4016 120.626 61.9168C120.447 62.432 120.189 62.8632 119.853 63.2104C119.517 63.5464 119.114 63.7984 118.643 63.9664C118.184 64.1344 117.68 64.2184 117.131 64.2184ZM116.947 63.1096C117.731 63.1096 118.358 62.8744 118.828 62.404C119.31 61.9224 119.551 61.1552 119.551 60.1024C119.551 59.5536 119.478 59.0888 119.332 58.708C119.198 58.3272 119.007 58.0192 118.761 57.784C118.526 57.5488 118.251 57.3808 117.938 57.28C117.624 57.1792 117.294 57.1288 116.947 57.1288C116.543 57.1288 116.202 57.1792 115.922 57.28C115.642 57.3808 115.39 57.4928 115.166 57.616V62.572C115.379 62.7288 115.631 62.8576 115.922 62.9584C116.213 63.0592 116.555 63.1096 116.947 63.1096ZM134.05 54.9112C134.05 55.068 134 55.2024 133.899 55.3144C133.81 55.4264 133.703 55.5104 133.58 55.5664C133.289 55.3648 132.947 55.1744 132.555 54.9952C132.163 54.816 131.654 54.7264 131.026 54.7264C130.511 54.7264 130.035 54.816 129.598 54.9952C129.162 55.1744 128.781 55.4376 128.456 55.7848C128.131 56.132 127.874 56.5688 127.683 57.0952C127.504 57.6216 127.414 58.2264 127.414 58.9096C127.414 59.604 127.504 60.2088 127.683 60.724C127.862 61.2392 128.109 61.6704 128.422 62.0176C128.747 62.3648 129.134 62.628 129.582 62.8072C130.03 62.9752 130.528 63.0592 131.077 63.0592C131.659 63.0592 132.163 62.9808 132.589 62.824C133.026 62.656 133.39 62.46 133.681 62.236C133.793 62.2808 133.899 62.3648 134 62.488C134.101 62.6 134.151 62.7344 134.151 62.8912C134.151 63.1264 134.017 63.3392 133.748 63.5296C133.49 63.7088 133.138 63.8656 132.69 64C132.242 64.1456 131.67 64.2184 130.976 64.2184C130.27 64.2184 129.615 64.1064 129.01 63.8824C128.406 63.6584 127.879 63.328 127.431 62.8912C126.994 62.4432 126.647 61.8888 126.39 61.228C126.132 60.5672 126.003 59.7944 126.003 58.9096C126.003 58.0248 126.132 57.252 126.39 56.5912C126.658 55.9192 127.017 55.3592 127.465 54.9112C127.913 54.4632 128.434 54.1272 129.027 53.9032C129.632 53.6792 130.265 53.5672 130.926 53.5672C131.385 53.5672 131.805 53.6064 132.186 53.6848C132.578 53.7632 132.908 53.8696 133.177 54.004C133.457 54.1272 133.67 54.2728 133.815 54.4408C133.972 54.5976 134.05 54.7544 134.05 54.9112ZM145.46 58.8928C145.46 59.7664 145.337 60.5392 145.09 61.2112C144.844 61.872 144.502 62.4264 144.065 62.8744C143.629 63.3112 143.113 63.6472 142.52 63.8824C141.926 64.1064 141.282 64.2184 140.588 64.2184C139.893 64.2184 139.249 64.1064 138.656 63.8824C138.062 63.6472 137.547 63.3112 137.11 62.8744C136.673 62.4264 136.332 61.872 136.085 61.2112C135.839 60.5392 135.716 59.7664 135.716 58.8928C135.716 58.0192 135.839 57.252 136.085 56.5912C136.343 55.9304 136.69 55.376 137.127 54.928C137.564 54.48 138.079 54.144 138.673 53.92C139.266 53.6848 139.905 53.5672 140.588 53.5672C141.271 53.5672 141.909 53.6848 142.503 53.92C143.097 54.144 143.612 54.48 144.049 54.928C144.485 55.376 144.827 55.9304 145.073 56.5912C145.331 57.252 145.46 58.0192 145.46 58.8928ZM144.065 58.8928C144.065 57.5488 143.746 56.5184 143.108 55.8016C142.481 55.0848 141.641 54.7264 140.588 54.7264C140.061 54.7264 139.585 54.8216 139.16 55.012C138.734 55.1912 138.37 55.46 138.068 55.8184C137.765 56.1656 137.53 56.5968 137.362 57.112C137.205 57.6272 137.127 58.2208 137.127 58.8928C137.127 60.2368 137.441 61.2672 138.068 61.984C138.695 62.7008 139.535 63.0592 140.588 63.0592C141.652 63.0592 142.497 62.7008 143.125 61.984C143.752 61.2672 144.065 60.2368 144.065 58.8928ZM152.024 63.8656C151.968 63.9216 151.862 63.972 151.705 64.0168C151.548 64.0616 151.375 64.084 151.184 64.084C150.971 64.084 150.781 64.056 150.613 64C150.445 63.9328 150.333 63.8376 150.277 63.7144C150.131 63.4232 149.958 63.048 149.756 62.5888C149.566 62.1296 149.359 61.62 149.135 61.06C148.922 60.4888 148.698 59.8896 148.463 59.2624C148.239 58.6352 148.02 58.0136 147.807 57.3976C147.595 56.7816 147.393 56.188 147.203 55.6168C147.012 55.0344 146.85 54.5136 146.715 54.0544C146.783 53.9648 146.883 53.8808 147.018 53.8024C147.152 53.724 147.303 53.6848 147.471 53.6848C147.684 53.6848 147.841 53.7352 147.942 53.836C148.043 53.9368 148.127 54.088 148.194 54.2896C148.698 55.7568 149.179 57.1736 149.639 58.54C150.098 59.9064 150.602 61.2952 151.151 62.7064H151.218C151.464 62.068 151.716 61.3904 151.974 60.6736C152.243 59.9456 152.5 59.2008 152.747 58.4392C153.004 57.6664 153.251 56.888 153.486 56.104C153.732 55.32 153.951 54.5528 154.141 53.8024C154.287 53.724 154.477 53.6848 154.712 53.6848C154.914 53.6848 155.076 53.7352 155.199 53.836C155.323 53.9368 155.384 54.088 155.384 54.2896C155.384 54.4576 155.317 54.7768 155.183 55.2472C155.059 55.7064 154.897 56.244 154.695 56.86C154.494 57.476 154.264 58.1368 154.007 58.8424C153.76 59.548 153.514 60.2256 153.267 60.8752C153.021 61.5248 152.786 62.1184 152.562 62.656C152.338 63.1936 152.159 63.5968 152.024 63.8656ZM158.862 63.9664C158.806 63.9888 158.722 64.0112 158.61 64.0336C158.498 64.0672 158.375 64.084 158.24 64.084C157.747 64.084 157.501 63.8768 157.501 63.4624V53.8192C157.557 53.7968 157.641 53.7744 157.753 53.752C157.876 53.7184 158.005 53.7016 158.139 53.7016C158.621 53.7016 158.862 53.9088 158.862 54.3232V63.9664ZM169.038 58.7752C169.038 58.0584 168.926 57.448 168.702 56.944C168.489 56.4288 168.192 56.0088 167.812 55.684C167.442 55.3592 167.005 55.124 166.501 54.9784C166.008 54.8216 165.476 54.7432 164.905 54.7432C164.547 54.7432 164.233 54.7544 163.964 54.7768C163.707 54.7992 163.466 54.8328 163.242 54.8776V62.8744C163.511 62.9416 163.796 62.9864 164.099 63.0088C164.412 63.0312 164.732 63.0424 165.056 63.0424C166.378 63.0424 167.369 62.684 168.03 61.9672C168.702 61.2504 169.038 60.1864 169.038 58.7752ZM170.432 58.7752C170.432 59.6936 170.304 60.4944 170.046 61.1776C169.8 61.8496 169.441 62.4096 168.971 62.8576C168.512 63.3056 167.952 63.6416 167.291 63.8656C166.63 64.0784 165.891 64.1848 165.073 64.1848C164.715 64.1848 164.312 64.168 163.864 64.1344C163.416 64.112 162.99 64.0392 162.587 63.916C162.116 63.7704 161.881 63.5128 161.881 63.1432V54.508C161.881 54.3288 161.926 54.1944 162.016 54.1048C162.105 54.004 162.245 53.9256 162.436 53.8696C162.783 53.7576 163.175 53.6848 163.612 53.6512C164.048 53.6176 164.485 53.6008 164.922 53.6008C165.74 53.6008 166.484 53.7128 167.156 53.9368C167.84 54.1496 168.422 54.4744 168.904 54.9112C169.385 55.3368 169.76 55.8744 170.029 56.524C170.298 57.1624 170.432 57.9128 170.432 58.7752ZM172.37 60.1696C172.337 60.0912 172.309 60.0128 172.286 59.9344C172.264 59.8448 172.253 59.744 172.253 59.632C172.253 59.2512 172.449 59.0608 172.841 59.0608H176.856C176.878 59.128 176.901 59.2064 176.923 59.296C176.957 59.3856 176.973 59.4808 176.973 59.5816C176.973 59.9736 176.777 60.1696 176.385 60.1696H172.37ZM184.612 61.9336C184.612 62.6504 184.349 63.2104 183.822 63.6136C183.296 64.0168 182.534 64.2184 181.537 64.2184C181.112 64.2184 180.72 64.1792 180.361 64.1008C180.003 64.0336 179.695 63.944 179.437 63.832C179.191 63.7088 178.995 63.5744 178.849 63.4288C178.715 63.272 178.648 63.1152 178.648 62.9584C178.648 62.824 178.681 62.6952 178.749 62.572C178.827 62.4488 178.939 62.3424 179.085 62.2528C179.387 62.4768 179.74 62.6784 180.143 62.8576C180.546 63.0256 181.005 63.1096 181.521 63.1096C182.685 63.1096 183.268 62.7176 183.268 61.9336C183.268 61.2952 182.881 60.8808 182.109 60.6904L180.714 60.3208C180.031 60.1416 179.533 59.884 179.219 59.548C178.905 59.2008 178.749 58.7584 178.749 58.2208C178.749 57.9296 178.805 57.6496 178.917 57.3808C179.04 57.112 179.225 56.8768 179.471 56.6752C179.717 56.4736 180.02 56.3168 180.378 56.2048C180.748 56.0816 181.179 56.02 181.672 56.02C182.456 56.02 183.089 56.1376 183.57 56.3728C184.052 56.5968 184.293 56.86 184.293 57.1624C184.293 57.308 184.253 57.4368 184.175 57.5488C184.108 57.6608 184.013 57.7448 183.889 57.8008C183.688 57.6664 183.402 57.5208 183.033 57.364C182.663 57.2072 182.226 57.1288 181.722 57.1288C181.218 57.1288 180.815 57.224 180.513 57.4144C180.221 57.6048 180.076 57.8736 180.076 58.2208C180.076 58.4784 180.16 58.6968 180.328 58.876C180.496 59.0552 180.776 59.1896 181.168 59.2792L182.327 59.5648C183.089 59.7552 183.66 60.0408 184.041 60.4216C184.421 60.7912 184.612 61.2952 184.612 61.9336ZM189.602 63.1264C190.072 63.1264 190.458 63.0816 190.761 62.992C191.074 62.8912 191.298 62.796 191.433 62.7064V60.2704L189.35 60.4888C188.767 60.5448 188.336 60.6792 188.056 60.892C187.776 61.0936 187.636 61.396 187.636 61.7992C187.636 62.2248 187.798 62.5552 188.123 62.7904C188.448 63.0144 188.941 63.1264 189.602 63.1264ZM189.585 56.02C190.559 56.02 191.332 56.2384 191.903 56.6752C192.474 57.112 192.76 57.8008 192.76 58.7416V62.7232C192.76 62.9696 192.71 63.16 192.609 63.2944C192.519 63.4176 192.379 63.5352 192.189 63.6472C191.92 63.804 191.562 63.9384 191.114 64.0504C190.677 64.1736 190.173 64.2352 189.602 64.2352C188.549 64.2352 187.731 64.028 187.149 63.6136C186.578 63.1992 186.292 62.6 186.292 61.816C186.292 61.0768 186.533 60.5224 187.014 60.1528C187.496 59.772 188.174 59.5368 189.047 59.4472L191.433 59.212V58.7416C191.433 58.1816 191.265 57.7728 190.929 57.5152C190.593 57.2576 190.139 57.1288 189.568 57.1288C189.098 57.1288 188.655 57.196 188.241 57.3304C187.826 57.4648 187.457 57.616 187.132 57.784C187.042 57.7056 186.958 57.616 186.88 57.5152C186.813 57.4144 186.779 57.3024 186.779 57.1792C186.779 57.0224 186.818 56.8936 186.897 56.7928C186.975 56.692 187.098 56.5968 187.266 56.5072C187.569 56.3504 187.916 56.2328 188.308 56.1544C188.7 56.0648 189.126 56.02 189.585 56.02ZM196.574 56.6752H199.9C199.934 56.7312 199.968 56.804 200.001 56.8936C200.035 56.9832 200.052 57.0896 200.052 57.2128C200.052 57.5824 199.878 57.7672 199.531 57.7672H196.591V63.9664C196.535 63.9888 196.451 64.0112 196.339 64.0336C196.227 64.0672 196.104 64.084 195.969 64.084C195.488 64.084 195.247 63.8824 195.247 63.4792V55.5496C195.247 54.564 195.51 53.8528 196.036 53.416C196.574 52.968 197.319 52.744 198.271 52.744C198.909 52.744 199.408 52.828 199.766 52.996C200.136 53.164 200.32 53.3712 200.32 53.6176C200.32 53.864 200.225 54.0712 200.035 54.2392C199.833 54.1272 199.581 54.0376 199.279 53.9704C198.976 53.892 198.685 53.8528 198.405 53.8528C197.722 53.8528 197.246 53.9928 196.977 54.2728C196.708 54.5528 196.574 55.0008 196.574 55.6168V56.6752ZM202.372 60.9088C202.675 62.376 203.638 63.1096 205.262 63.1096C205.732 63.1096 206.158 63.0312 206.539 62.8744C206.919 62.7176 207.222 62.5496 207.446 62.3704C207.715 62.5272 207.849 62.74 207.849 63.0088C207.849 63.1656 207.776 63.3168 207.631 63.4624C207.496 63.608 207.306 63.7368 207.059 63.8488C206.824 63.9608 206.544 64.0504 206.219 64.1176C205.906 64.1848 205.564 64.2184 205.195 64.2184C203.895 64.2184 202.865 63.8656 202.103 63.16C201.353 62.4544 200.978 61.424 200.978 60.0688C200.978 59.4304 201.067 58.8648 201.247 58.372C201.437 57.868 201.695 57.4424 202.019 57.0952C202.355 56.748 202.753 56.4848 203.212 56.3056C203.671 56.1152 204.17 56.02 204.707 56.02C205.211 56.02 205.676 56.104 206.102 56.272C206.527 56.44 206.891 56.6808 207.194 56.9944C207.507 57.2968 207.748 57.6608 207.916 58.0864C208.095 58.5008 208.185 58.96 208.185 59.464C208.185 59.7104 208.129 59.8896 208.017 60.0016C207.905 60.1024 207.748 60.164 207.547 60.1864L202.372 60.9088ZM204.691 57.112C204.007 57.112 203.442 57.3528 202.994 57.8344C202.546 58.3048 202.311 58.9824 202.288 59.8672L206.908 59.2288C206.852 58.6128 206.634 58.1088 206.253 57.7168C205.883 57.3136 205.363 57.112 204.691 57.112ZM220.697 60.1192C220.697 60.7464 220.607 61.312 220.428 61.816C220.249 62.32 219.991 62.7512 219.655 63.1096C219.33 63.468 218.933 63.7424 218.462 63.9328C217.992 64.1232 217.466 64.2184 216.883 64.2184C216.301 64.2184 215.774 64.1232 215.304 63.9328C214.834 63.7424 214.43 63.468 214.094 63.1096C213.758 62.7512 213.501 62.32 213.322 61.816C213.142 61.312 213.053 60.7464 213.053 60.1192C213.053 59.492 213.142 58.9264 213.322 58.4224C213.512 57.9184 213.775 57.4872 214.111 57.1288C214.447 56.7704 214.85 56.496 215.321 56.3056C215.791 56.1152 216.312 56.02 216.883 56.02C217.454 56.02 217.975 56.1152 218.446 56.3056C218.916 56.496 219.314 56.7704 219.638 57.1288C219.974 57.4872 220.232 57.9184 220.411 58.4224C220.602 58.9264 220.697 59.492 220.697 60.1192ZM216.883 57.1288C216.122 57.1288 215.522 57.392 215.086 57.9184C214.649 58.4448 214.43 59.1784 214.43 60.1192C214.43 61.0712 214.643 61.8104 215.069 62.3368C215.506 62.852 216.11 63.1096 216.883 63.1096C217.656 63.1096 218.255 62.8464 218.681 62.32C219.106 61.7936 219.319 61.06 219.319 60.1192C219.319 59.1784 219.101 58.4448 218.664 57.9184C218.238 57.392 217.645 57.1288 216.883 57.1288ZM228.375 56.0872C228.566 56.0872 228.717 56.1376 228.829 56.2384C228.952 56.3392 229.014 56.4848 229.014 56.6752C229.014 56.7984 228.969 57.0168 228.879 57.3304C228.79 57.6328 228.672 57.9968 228.526 58.4224C228.381 58.8368 228.213 59.296 228.022 59.8C227.843 60.304 227.647 60.808 227.434 61.312C227.233 61.8048 227.026 62.2808 226.813 62.74C226.611 63.1992 226.421 63.5968 226.242 63.9328C226.186 63.9776 226.085 64.0168 225.939 64.0504C225.805 64.084 225.659 64.1008 225.502 64.1008C225.088 64.1008 224.819 63.9832 224.696 63.748C224.595 63.5576 224.466 63.2944 224.31 62.9584C224.153 62.6224 223.985 62.2416 223.806 61.816C223.626 61.3904 223.442 60.9368 223.251 60.4552C223.061 59.9736 222.876 59.4976 222.697 59.0272C222.518 58.5456 222.35 58.0864 222.193 57.6496C222.036 57.2016 221.907 56.804 221.806 56.4568C221.885 56.3448 221.991 56.2552 222.126 56.188C222.26 56.1208 222.394 56.0872 222.529 56.0872C222.73 56.0872 222.882 56.1376 222.982 56.2384C223.094 56.3392 223.195 56.5072 223.285 56.7424L224.326 59.7496C224.394 59.94 224.478 60.1752 224.578 60.4552C224.679 60.724 224.78 61.004 224.881 61.2952C224.993 61.5752 225.099 61.8496 225.2 62.1184C225.312 62.3872 225.402 62.6168 225.469 62.8072H225.536C225.984 61.676 226.398 60.5616 226.779 59.464C227.171 58.3664 227.513 57.2856 227.804 56.2216C227.95 56.132 228.14 56.0872 228.375 56.0872ZM231.707 60.9088C232.009 62.376 232.972 63.1096 234.596 63.1096C235.067 63.1096 235.492 63.0312 235.873 62.8744C236.254 62.7176 236.556 62.5496 236.78 62.3704C237.049 62.5272 237.183 62.74 237.183 63.0088C237.183 63.1656 237.111 63.3168 236.965 63.4624C236.831 63.608 236.64 63.7368 236.394 63.8488C236.159 63.9608 235.879 64.0504 235.554 64.1176C235.24 64.1848 234.899 64.2184 234.529 64.2184C233.23 64.2184 232.199 63.8656 231.438 63.16C230.687 62.4544 230.312 61.424 230.312 60.0688C230.312 59.4304 230.402 58.8648 230.581 58.372C230.771 57.868 231.029 57.4424 231.354 57.0952C231.69 56.748 232.087 56.4848 232.547 56.3056C233.006 56.1152 233.504 56.02 234.042 56.02C234.546 56.02 235.011 56.104 235.436 56.272C235.862 56.44 236.226 56.6808 236.528 56.9944C236.842 57.2968 237.083 57.6608 237.251 58.0864C237.43 58.5008 237.519 58.96 237.519 59.464C237.519 59.7104 237.463 59.8896 237.351 60.0016C237.239 60.1024 237.083 60.164 236.881 60.1864L231.707 60.9088ZM234.025 57.112C233.342 57.112 232.776 57.3528 232.328 57.8344C231.88 58.3048 231.645 58.9824 231.623 59.8672L236.243 59.2288C236.187 58.6128 235.968 58.1088 235.587 57.7168C235.218 57.3136 234.697 57.112 234.025 57.112ZM240.805 63.9664C240.749 63.9888 240.665 64.0112 240.553 64.0336C240.441 64.0672 240.318 64.084 240.183 64.084C239.702 64.084 239.461 63.8824 239.461 63.4792V57.784C239.461 57.5264 239.506 57.3248 239.595 57.1792C239.696 57.0224 239.858 56.8712 240.082 56.7256C240.374 56.5352 240.766 56.3728 241.258 56.2384C241.762 56.0928 242.328 56.02 242.955 56.02C243.851 56.02 244.299 56.244 244.299 56.692C244.299 56.804 244.282 56.9104 244.249 57.0112C244.215 57.1008 244.17 57.1792 244.114 57.2464C244.002 57.224 243.857 57.2016 243.678 57.1792C243.498 57.1568 243.319 57.1456 243.14 57.1456C242.625 57.1456 242.171 57.2016 241.779 57.3136C241.387 57.4144 241.062 57.5376 240.805 57.6832V63.9664ZM251.893 64.2184C251.109 64.2184 250.471 64.0448 249.978 63.6976C249.496 63.3504 249.256 62.7736 249.256 61.9672V53.9872C249.312 53.9648 249.396 53.9424 249.508 53.92C249.631 53.8864 249.76 53.8696 249.894 53.8696C250.364 53.8696 250.6 54.0712 250.6 54.4744V56.4064H253.355C253.388 56.4624 253.422 56.5408 253.456 56.6416C253.489 56.7312 253.506 56.832 253.506 56.944C253.506 57.3248 253.338 57.5152 253.002 57.5152H250.6V61.8832C250.6 62.3312 250.723 62.6504 250.969 62.8408C251.227 63.02 251.585 63.1096 252.044 63.1096C252.235 63.1096 252.448 63.076 252.683 63.0088C252.918 62.9416 253.114 62.8632 253.271 62.7736C253.338 62.8408 253.4 62.9248 253.456 63.0256C253.512 63.1264 253.54 63.244 253.54 63.3784C253.54 63.6248 253.394 63.8264 253.103 63.9832C252.812 64.14 252.408 64.2184 251.893 64.2184ZM256.867 63.9664C256.811 63.9888 256.727 64.0112 256.615 64.0336C256.503 64.0672 256.38 64.084 256.246 64.084C255.764 64.084 255.523 63.8824 255.523 63.4792V53.1136C255.579 53.0912 255.663 53.0688 255.775 53.0464C255.898 53.0128 256.027 52.996 256.162 52.996C256.632 52.996 256.867 53.1976 256.867 53.6008V56.6248C257.136 56.468 257.45 56.328 257.808 56.2048C258.178 56.0816 258.592 56.02 259.051 56.02C259.522 56.02 259.947 56.0816 260.328 56.2048C260.72 56.328 261.056 56.5184 261.336 56.776C261.616 57.0224 261.834 57.3416 261.991 57.7336C262.148 58.1144 262.226 58.5624 262.226 59.0776V63.9664C262.17 63.9888 262.081 64.0112 261.958 64.0336C261.846 64.0672 261.728 64.084 261.605 64.084C261.123 64.084 260.882 63.8824 260.882 63.4792V59.1112C260.882 58.4392 260.698 57.9408 260.328 57.616C259.958 57.2912 259.471 57.1288 258.866 57.1288C258.474 57.1288 258.105 57.2016 257.758 57.3472C257.422 57.4816 257.125 57.6496 256.867 57.8512V63.9664ZM265.7 60.9088C266.003 62.376 266.966 63.1096 268.59 63.1096C269.06 63.1096 269.486 63.0312 269.867 62.8744C270.248 62.7176 270.55 62.5496 270.774 62.3704C271.043 62.5272 271.177 62.74 271.177 63.0088C271.177 63.1656 271.104 63.3168 270.959 63.4624C270.824 63.608 270.634 63.7368 270.388 63.8488C270.152 63.9608 269.872 64.0504 269.548 64.1176C269.234 64.1848 268.892 64.2184 268.523 64.2184C267.224 64.2184 266.193 63.8656 265.432 63.16C264.681 62.4544 264.306 61.424 264.306 60.0688C264.306 59.4304 264.396 58.8648 264.575 58.372C264.765 57.868 265.023 57.4424 265.348 57.0952C265.684 56.748 266.081 56.4848 266.54 56.3056C267 56.1152 267.498 56.02 268.036 56.02C268.54 56.02 269.004 56.104 269.43 56.272C269.856 56.44 270.22 56.6808 270.522 56.9944C270.836 57.2968 271.076 57.6608 271.244 58.0864C271.424 58.5008 271.513 58.96 271.513 59.464C271.513 59.7104 271.457 59.8896 271.345 60.0016C271.233 60.1024 271.076 60.164 270.875 60.1864L265.7 60.9088ZM268.019 57.112C267.336 57.112 266.77 57.3528 266.322 57.8344C265.874 58.3048 265.639 58.9824 265.616 59.8672L270.236 59.2288C270.18 58.6128 269.962 58.1088 269.581 57.7168C269.212 57.3136 268.691 57.112 268.019 57.112ZM277.792 64.084C277.299 64.084 277.053 63.8824 277.053 63.4792V53.9872C277.255 53.7856 277.557 53.6848 277.96 53.6848C278.229 53.6848 278.459 53.7408 278.649 53.8528C278.839 53.9536 279.013 54.144 279.17 54.424L282.379 59.8C282.513 60.0352 282.653 60.2872 282.799 60.556C282.944 60.8136 283.084 61.0768 283.219 61.3456C283.353 61.6032 283.476 61.8496 283.588 62.0848C283.711 62.3088 283.812 62.4992 283.891 62.656L283.958 62.6392C283.868 61.732 283.812 60.8192 283.79 59.9008C283.779 58.9824 283.773 58.0864 283.773 57.2128V53.8192C283.84 53.7968 283.93 53.7744 284.042 53.752C284.154 53.7184 284.277 53.7016 284.411 53.7016C284.904 53.7016 285.151 53.9032 285.151 54.3064V63.8152C285.05 63.9048 284.921 63.972 284.764 64.0168C284.607 64.0728 284.434 64.1008 284.243 64.1008C283.975 64.1008 283.745 64.0504 283.555 63.9496C283.364 63.8376 283.191 63.6416 283.034 63.3616L279.842 57.9856C279.707 57.7616 279.562 57.5152 279.405 57.2464C279.259 56.9776 279.114 56.7144 278.968 56.4568C278.834 56.1992 278.705 55.9528 278.582 55.7176C278.47 55.4824 278.375 55.2864 278.296 55.1296L278.229 55.1464C278.285 55.684 278.33 56.3 278.363 56.9944C278.397 57.6776 278.414 58.3272 278.414 58.9432V63.9664C278.358 63.9888 278.268 64.0112 278.145 64.0336C278.033 64.0672 277.915 64.084 277.792 64.084ZM294.763 53.7856C294.852 53.864 294.925 53.9592 294.981 54.0712C295.048 54.1832 295.082 54.3008 295.082 54.424C295.082 54.5808 295.048 54.7208 294.981 54.844C294.925 54.9672 294.841 55.1072 294.729 55.264L289.202 62.8408H295.032C295.076 62.8968 295.116 62.9752 295.149 63.076C295.183 63.1656 295.2 63.272 295.2 63.3952C295.2 63.5856 295.149 63.7368 295.048 63.8488C294.959 63.9496 294.836 64 294.679 64H287.808C287.718 63.9216 287.64 63.8264 287.572 63.7144C287.516 63.6024 287.488 63.4848 287.488 63.3616C287.488 63.2048 287.516 63.0648 287.572 62.9416C287.64 62.8184 287.729 62.6784 287.841 62.5216L293.368 54.9448H287.774C287.74 54.8888 287.701 54.816 287.656 54.7264C287.623 54.6256 287.606 54.5136 287.606 54.3904C287.606 54.2 287.651 54.0544 287.74 53.9536C287.841 53.8416 287.976 53.7856 288.144 53.7856H294.763ZM302.102 63.9664C302.046 63.9888 301.962 64.0112 301.85 64.0336C301.738 64.0672 301.614 64.084 301.48 64.084C300.998 64.084 300.758 63.8824 300.758 63.4792V53.1136C300.814 53.0912 300.898 53.0688 301.01 53.0464C301.133 53.0128 301.256 52.996 301.379 52.996C301.861 52.996 302.102 53.1976 302.102 53.6008V63.9664ZM311.965 60.1192C311.965 60.7464 311.875 61.312 311.696 61.816C311.517 62.32 311.259 62.7512 310.923 63.1096C310.598 63.468 310.201 63.7424 309.73 63.9328C309.26 64.1232 308.734 64.2184 308.151 64.2184C307.569 64.2184 307.042 64.1232 306.572 63.9328C306.102 63.7424 305.698 63.468 305.362 63.1096C305.026 62.7512 304.769 62.32 304.59 61.816C304.41 61.312 304.321 60.7464 304.321 60.1192C304.321 59.492 304.41 58.9264 304.59 58.4224C304.78 57.9184 305.043 57.4872 305.379 57.1288C305.715 56.7704 306.118 56.496 306.589 56.3056C307.059 56.1152 307.58 56.02 308.151 56.02C308.722 56.02 309.243 56.1152 309.714 56.3056C310.184 56.496 310.582 56.7704 310.906 57.1288C311.242 57.4872 311.5 57.9184 311.679 58.4224C311.87 58.9264 311.965 59.492 311.965 60.1192ZM308.151 57.1288C307.39 57.1288 306.79 57.392 306.354 57.9184C305.917 58.4448 305.698 59.1784 305.698 60.1192C305.698 61.0712 305.911 61.8104 306.337 62.3368C306.774 62.852 307.378 63.1096 308.151 63.1096C308.924 63.1096 309.523 62.8464 309.949 62.32C310.374 61.7936 310.587 61.06 310.587 60.1192C310.587 59.1784 310.369 58.4448 309.932 57.9184C309.506 57.392 308.913 57.1288 308.151 57.1288ZM317.639 57.1456C317.258 57.1456 316.905 57.2128 316.58 57.3472C316.256 57.4704 315.976 57.6608 315.74 57.9184C315.505 58.1648 315.32 58.4784 315.186 58.8592C315.052 59.2288 314.984 59.6544 314.984 60.136C314.984 61.0992 315.225 61.8384 315.707 62.3536C316.188 62.8576 316.832 63.1096 317.639 63.1096C318.109 63.1096 318.501 63.048 318.815 62.9248C319.128 62.7904 319.408 62.6392 319.655 62.4712C319.778 62.5384 319.879 62.6224 319.957 62.7232C320.036 62.824 320.075 62.9472 320.075 63.0928C320.075 63.2496 320.013 63.3952 319.89 63.5296C319.767 63.664 319.593 63.7816 319.369 63.8824C319.156 63.9832 318.899 64.0616 318.596 64.1176C318.305 64.1848 317.986 64.2184 317.639 64.2184C317.056 64.2184 316.519 64.1344 316.026 63.9664C315.533 63.7984 315.108 63.5464 314.749 63.2104C314.391 62.8744 314.111 62.4544 313.909 61.9504C313.708 61.4352 313.607 60.8304 313.607 60.136C313.607 59.4528 313.713 58.8592 313.926 58.3552C314.139 57.84 314.424 57.4088 314.783 57.0616C315.141 56.7144 315.561 56.4568 316.043 56.2888C316.536 56.1096 317.056 56.02 317.605 56.02C317.952 56.02 318.272 56.0536 318.563 56.1208C318.865 56.1768 319.123 56.2608 319.336 56.3728C319.548 56.4848 319.711 56.6136 319.823 56.7592C319.946 56.8936 320.008 57.0336 320.008 57.1792C320.008 57.3136 319.968 57.4312 319.89 57.532C319.812 57.6328 319.711 57.7112 319.588 57.7672C319.341 57.5992 319.072 57.4536 318.781 57.3304C318.49 57.2072 318.109 57.1456 317.639 57.1456ZM323.444 63.9664C323.388 63.9888 323.304 64.0112 323.192 64.0336C323.08 64.0672 322.957 64.084 322.822 64.084C322.341 64.084 322.1 63.8824 322.1 63.4792V53.1136C322.156 53.0912 322.24 53.0688 322.352 53.0464C322.475 53.0128 322.604 52.996 322.738 52.996C323.209 52.996 323.444 53.1976 323.444 53.6008V59.6488L327.123 56.0872C327.392 56.0984 327.599 56.1656 327.745 56.2888C327.901 56.4008 327.98 56.552 327.98 56.7424C327.98 56.8992 327.929 57.0392 327.829 57.1624C327.728 57.2744 327.593 57.4088 327.425 57.5656L324.721 59.9344L328.467 63.2944C328.445 63.5408 328.366 63.7368 328.232 63.8824C328.109 64.028 327.941 64.1008 327.728 64.1008C327.56 64.1008 327.403 64.0616 327.257 63.9832C327.123 63.8936 326.983 63.7704 326.837 63.6136L323.444 60.2032V63.9664ZM336.725 62.7232C336.725 62.9472 336.674 63.1208 336.574 63.244C336.484 63.3672 336.338 63.4904 336.137 63.6136C335.913 63.7592 335.594 63.8936 335.179 64.0168C334.765 64.1512 334.289 64.2184 333.751 64.2184C333.146 64.2184 332.592 64.14 332.088 63.9832C331.584 63.8264 331.147 63.5856 330.778 63.2608C330.419 62.9248 330.139 62.5048 329.938 62.0008C329.747 61.4856 329.652 60.8696 329.652 60.1528C329.652 59.4248 329.753 58.8032 329.954 58.288C330.156 57.7616 330.425 57.3304 330.761 56.9944C331.108 56.6584 331.511 56.412 331.97 56.2552C332.441 56.0984 332.939 56.02 333.466 56.02C333.824 56.02 334.171 56.0648 334.507 56.1544C334.843 56.244 335.134 56.356 335.381 56.4904V53.1136C335.437 53.0912 335.521 53.0688 335.633 53.0464C335.756 53.0128 335.879 52.996 336.002 52.996C336.484 52.996 336.725 53.1976 336.725 53.6008V62.7232ZM335.381 57.7C335.157 57.5432 334.899 57.4088 334.608 57.2968C334.317 57.1848 333.981 57.1288 333.6 57.1288C333.253 57.1288 332.922 57.1848 332.609 57.2968C332.306 57.3976 332.038 57.5712 331.802 57.8176C331.567 58.0528 331.377 58.3664 331.231 58.7584C331.097 59.1504 331.03 59.6264 331.03 60.1864C331.03 61.2168 331.276 61.9616 331.769 62.4208C332.262 62.88 332.917 63.1096 333.734 63.1096C334.126 63.1096 334.446 63.0704 334.692 62.992C334.95 62.9024 335.179 62.796 335.381 62.6728V57.7ZM346.484 60.1192C346.484 60.7464 346.394 61.312 346.215 61.816C346.036 62.32 345.778 62.7512 345.442 63.1096C345.117 63.468 344.72 63.7424 344.249 63.9328C343.779 64.1232 343.252 64.2184 342.67 64.2184C342.088 64.2184 341.561 64.1232 341.091 63.9328C340.62 63.7424 340.217 63.468 339.881 63.1096C339.545 62.7512 339.288 62.32 339.108 61.816C338.929 61.312 338.84 60.7464 338.84 60.1192C338.84 59.492 338.929 58.9264 339.108 58.4224C339.299 57.9184 339.562 57.4872 339.898 57.1288C340.234 56.7704 340.637 56.496 341.108 56.3056C341.578 56.1152 342.099 56.02 342.67 56.02C343.241 56.02 343.762 56.1152 344.232 56.3056C344.703 56.496 345.1 56.7704 345.425 57.1288C345.761 57.4872 346.019 57.9184 346.198 58.4224C346.388 58.9264 346.484 59.492 346.484 60.1192ZM342.67 57.1288C341.908 57.1288 341.309 57.392 340.872 57.9184C340.436 58.4448 340.217 59.1784 340.217 60.1192C340.217 61.0712 340.43 61.8104 340.856 62.3368C341.292 62.852 341.897 63.1096 342.67 63.1096C343.443 63.1096 344.042 62.8464 344.468 62.32C344.893 61.7936 345.106 61.06 345.106 60.1192C345.106 59.1784 344.888 58.4448 344.451 57.9184C344.025 57.392 343.432 57.1288 342.67 57.1288ZM353.353 58.2208C353.196 58.7472 353.033 59.2792 352.865 59.8168C352.709 60.3544 352.546 60.8696 352.378 61.3624C352.21 61.8552 352.048 62.32 351.891 62.7568C351.734 63.1936 351.589 63.58 351.454 63.916C351.365 63.972 351.264 64.0168 351.152 64.0504C351.04 64.084 350.889 64.1008 350.698 64.1008C350.519 64.1008 350.351 64.0672 350.194 64C350.049 63.944 349.948 63.8488 349.892 63.7144C349.757 63.4344 349.595 62.9976 349.405 62.404C349.225 61.8104 349.035 61.1608 348.833 60.4552C348.643 59.7384 348.458 59.0216 348.279 58.3048C348.111 57.5768 347.971 56.944 347.859 56.4064C347.937 56.328 348.033 56.2552 348.145 56.188C348.268 56.1208 348.413 56.0872 348.581 56.0872C348.794 56.0872 348.951 56.1488 349.052 56.272C349.153 56.384 349.231 56.5688 349.287 56.8264C349.388 57.2968 349.505 57.8344 349.64 58.4392C349.774 59.0328 349.909 59.6152 350.043 60.1864C350.177 60.7576 350.301 61.2784 350.413 61.7488C350.536 62.2192 350.625 62.5664 350.681 62.7904H350.749C350.816 62.5888 350.911 62.2864 351.034 61.8832C351.169 61.48 351.32 61.0208 351.488 60.5056C351.656 59.9792 351.841 59.4136 352.042 58.8088C352.244 58.204 352.445 57.5992 352.647 56.9944C352.849 56.8824 353.089 56.8264 353.369 56.8264C353.784 56.8264 354.041 56.972 354.142 57.2632C354.344 57.8456 354.534 58.428 354.713 59.0104C354.904 59.5816 355.077 60.1136 355.234 60.6064C355.391 61.0992 355.525 61.5416 355.637 61.9336C355.749 62.3144 355.839 62.6056 355.906 62.8072H355.99C356.248 61.7992 356.528 60.7296 356.83 59.5984C357.133 58.4672 357.379 57.3472 357.569 56.2384C357.726 56.1376 357.917 56.0872 358.141 56.0872C358.331 56.0872 358.482 56.132 358.594 56.2216C358.706 56.3112 358.762 56.4512 358.762 56.6416C358.762 56.7648 358.723 57.0056 358.645 57.364C358.577 57.7112 358.482 58.12 358.359 58.5904C358.236 59.0496 358.096 59.548 357.939 60.0856C357.793 60.612 357.642 61.1272 357.485 61.6312C357.329 62.124 357.177 62.5776 357.032 62.992C356.897 63.3952 356.78 63.7032 356.679 63.916C356.623 63.9608 356.528 64 356.393 64.0336C356.27 64.0784 356.125 64.1008 355.957 64.1008C355.744 64.1008 355.565 64.0728 355.419 64.0168C355.285 63.972 355.195 63.8936 355.15 63.7816C355.027 63.4792 354.893 63.1208 354.747 62.7064C354.613 62.292 354.467 61.844 354.31 61.3624C354.153 60.8696 353.991 60.3544 353.823 59.8168C353.666 59.2792 353.509 58.7472 353.353 58.2208ZM366.079 58.9432C366.079 58.316 365.9 57.8568 365.541 57.5656C365.194 57.2744 364.724 57.1288 364.13 57.1288C363.682 57.1288 363.285 57.1848 362.937 57.2968C362.59 57.4088 362.293 57.5376 362.047 57.6832V63.9664C361.991 63.9888 361.907 64.0112 361.795 64.0336C361.683 64.0672 361.56 64.084 361.425 64.084C360.944 64.084 360.703 63.8824 360.703 63.4792V57.7504C360.703 57.5152 360.748 57.3248 360.837 57.1792C360.938 57.0224 361.106 56.8712 361.341 56.7256C361.633 56.5464 362.019 56.384 362.501 56.2384C362.982 56.0928 363.525 56.02 364.13 56.02C365.149 56.02 365.95 56.2496 366.533 56.7088C367.126 57.168 367.423 57.8904 367.423 58.876V63.9664C367.367 63.9888 367.277 64.0112 367.154 64.0336C367.042 64.0672 366.925 64.084 366.801 64.084C366.32 64.084 366.079 63.8824 366.079 63.4792V58.9432Z" fill="black"/>
<path d="M48.3765 24.2581C48.3765 21.8102 47.6506 19.4173 46.2906 17.3819C44.9306 15.3465 42.9976 13.7601 40.736 12.8233C38.4744 11.8866 35.9859 11.6415 33.585 12.119C31.1841 12.5966 28.9787 13.7754 27.2478 15.5063C25.5168 17.2373 24.338 19.4426 23.8605 21.8435C23.3829 24.2444 23.628 26.733 24.5648 28.9946C25.5016 31.2562 27.088 33.1892 29.1233 34.5492C31.1587 35.9092 33.5517 36.6351 35.9996 36.6351C39.281 36.6313 42.427 35.3261 44.7473 33.0058C47.0676 30.6855 48.3728 27.5396 48.3765 24.2581ZM26.9388 24.2581C26.9388 22.4661 27.4702 20.7142 28.4658 19.2242C29.4614 17.7342 30.8765 16.5728 32.5322 15.887C34.1878 15.2012 36.0096 15.0218 37.7673 15.3714C39.5249 15.721 41.1394 16.584 42.4066 17.8512C43.6737 19.1183 44.5367 20.7328 44.8863 22.4905C45.2359 24.2481 45.0565 26.0699 44.3707 27.7256C43.6849 29.3812 42.5236 30.7963 41.0335 31.7919C39.5435 32.7876 37.7916 33.319 35.9996 33.319C33.5973 33.3162 31.2943 32.3607 29.5956 30.6621C27.897 28.9634 26.9415 26.6604 26.9388 24.2581Z" fill="black"/>
<path d="M48.8984 49.2027L56.062 40.1328C57.6316 38.3802 58.8613 36.3507 59.6881 34.148C61.1184 30.3201 61.5984 26.2024 61.087 22.1481C60.5757 18.0939 59.0881 14.2243 56.7522 10.8715C54.4291 7.51711 51.3276 4.77582 47.7132 2.88244C44.0989 0.989051 40.0794 0 35.9992 0C31.9189 0 27.8995 0.989051 24.2851 2.88244C20.6708 4.77582 17.5692 7.51711 15.2462 10.8715C12.9109 14.2226 11.4234 18.0902 10.9113 22.1426C10.3992 26.1949 10.8778 30.3109 12.306 34.1377C13.1499 36.3363 14.3795 38.3665 15.9372 40.1328L23.102 49.2035C8.97295 51.1223 0 55.9688 0 61.8329C0 70.5849 18.5482 75.3075 36 75.3075C45.3518 75.3075 54.1677 74.0465 60.8227 71.7563C68.1347 69.2402 72 65.8089 72 61.8329C71.9996 55.9609 63.0333 51.1207 48.8984 49.2027ZM18.4703 37.9935C17.1594 36.5166 16.1236 34.8169 15.412 32.975C14.1717 29.649 13.7569 26.0718 14.2032 22.5502C14.6495 19.0287 15.9437 15.668 17.9745 12.7567C19.9925 9.84366 22.6865 7.46311 25.8257 5.8189C28.9649 4.1747 32.4558 3.31582 35.9996 3.31582C39.5433 3.31582 43.0343 4.1747 46.1735 5.8189C49.3127 7.46311 52.0067 9.84366 54.0247 12.7567C56.0574 15.6728 57.3517 19.0388 57.7961 22.5656C58.2406 26.0924 57.8221 29.6743 56.5764 33.0036C55.8846 34.8443 54.8506 36.5374 53.5289 37.9935C53.5127 38.0117 53.4974 38.0304 53.4825 38.0494L35.9996 60.1827L18.5167 38.0478C18.5018 38.0303 18.4864 38.0117 18.4703 37.9935ZM59.7437 68.6205C53.4265 70.7942 44.9941 71.9914 35.9996 71.9914C27.0051 71.9914 18.5726 70.7942 12.2555 68.6205C6.65956 66.6947 3.31569 64.1571 3.31569 61.8329C3.31569 58.3597 11.0899 53.8664 25.507 52.249L34.6984 63.8852C34.8536 64.0817 35.0513 64.2405 35.2767 64.3496C35.502 64.4588 35.7492 64.5155 35.9996 64.5155C36.25 64.5155 36.4971 64.4588 36.7225 64.3496C36.9478 64.2405 37.1455 64.0817 37.3007 63.8852L46.4926 52.2485C60.911 53.8651 68.6835 58.3506 68.6835 61.8329C68.6835 64.1571 65.3413 66.6947 59.7437 68.6205Z" fill="black"/>
</svg>
